<svg width="400" height="300" viewBox="0 0 400 300" xmlns="http://www.w3.org/2000/svg">
  <defs>
    <linearGradient id="bg-gradient-2" x1="0%" y1="0%" x2="100%" y2="100%">
      <stop offset="0%" style="stop-color:#1e3a8a;stop-opacity:1" />
      <stop offset="100%" style="stop-color:#3b82f6;stop-opacity:1" />
    </linearGradient>
    <linearGradient id="server-gradient" x1="0%" y1="0%" x2="100%" y2="100%">
      <stop offset="0%" style="stop-color:#374151;stop-opacity:1" />
      <stop offset="100%" style="stop-color:#111827;stop-opacity:1" />
    </linearGradient>
  </defs>
  
  <!-- Background -->
  <rect width="400" height="300" fill="url(#bg-gradient-2)"/>
  
  <!-- Server Rack -->
  <rect x="60" y="60" width="120" height="180" fill="url(#server-gradient)" rx="8"/>
  <rect x="70" y="70" width="100" height="20" fill="#1f2937" rx="4"/>
  <circle cx="85" cy="80" r="3" fill="#22c55e"/>
  <circle cx="95" cy="80" r="3" fill="#22c55e"/>
  <rect x="110" y="76" width="50" height="8" fill="#374151" rx="2"/>
  
  <rect x="70" y="100" width="100" height="20" fill="#1f2937" rx="4"/>
  <circle cx="85" cy="110" r="3" fill="#22c55e"/>
  <circle cx="95" cy="110" r="3" fill="#f59e0b"/>
  <rect x="110" y="106" width="50" height="8" fill="#374151" rx="2"/>
  
  <rect x="70" y="130" width="100" height="20" fill="#1f2937" rx="4"/>
  <circle cx="85" cy="140" r="3" fill="#22c55e"/>
  <circle cx="95" cy="140" r="3" fill="#22c55e"/>
  <rect x="110" y="136" width="50" height="8" fill="#374151" rx="2"/>
  
  <!-- Monitoring Dashboard -->
  <rect x="200" y="40" width="180" height="140" fill="white" rx="12"/>
  <rect x="200" y="40" width="180" height="30" fill="#f8fafc" rx="12"/>
  <text x="290" y="58" font-family="Arial, sans-serif" font-size="14" font-weight="bold" fill="#1f2937" text-anchor="middle">Server Monitor</text>
  
  <!-- Charts -->
  <rect x="210" y="80" width="70" height="50" fill="#f3f4f6" rx="4"/>
  <path d="M215 120 L225 110 L235 115 L245 100 L255 105 L265 95 L275 100" stroke="#22c55e" stroke-width="2" fill="none"/>
  <text x="242" y="140" font-family="Arial, sans-serif" font-size="10" fill="#374151" text-anchor="middle">CPU</text>
  
  <rect x="290" y="80" width="80" height="50" fill="#f3f4f6" rx="4"/>
  <circle cx="330" cy="105" r="20" stroke="#06b6d4" stroke-width="6" fill="none" stroke-dasharray="40 20"/>
  <text x="330" y="109" font-family="Arial, sans-serif" font-size="12" fill="#1f2937" text-anchor="middle">78%</text>
  <text x="330" y="140" font-family="Arial, sans-serif" font-size="10" fill="#374151" text-anchor="middle">Memory</text>
  
  <!-- Laravel 12 Integration -->
  <rect x="200" y="190" width="180" height="70" fill="white" rx="8"/>
  <rect x="210" y="200" width="50" height="25" fill="#FF2D20" rx="4"/>
  <text x="235" y="215" font-family="Arial, sans-serif" font-size="10" font-weight="bold" fill="white" text-anchor="middle">Laravel 12</text>
  <text x="210" y="240" font-family="Arial, sans-serif" font-size="12" fill="#1f2937">Server Management API</text>
  <text x="210" y="255" font-family="Arial, sans-serif" font-size="10" fill="#6b7280">Real-time monitoring & automation</text>
  
  <!-- Status Indicators -->
  <circle cx="350" cy="210" r="8" fill="#22c55e"/>
  <text x="350" y="214" font-family="Arial, sans-serif" font-size="8" fill="white" text-anchor="middle">✓</text>
  <text x="350" y="230" font-family="Arial, sans-serif" font-size="8" fill="#374151" text-anchor="middle">Online</text>
  
  <!-- Connection Lines -->
  <line x1="180" y1="120" x2="200" y2="100" stroke="rgba(255,255,255,0.5)" stroke-width="2" stroke-dasharray="5,5"/>
  <line x1="180" y1="140" x2="200" y2="120" stroke="rgba(255,255,255,0.5)" stroke-width="2" stroke-dasharray="5,5"/>
  
  <!-- Stats -->
  <rect x="20" y="270" width="360" height="25" fill="rgba(255,255,255,0.1)" rx="4"/>
  <text x="70" y="285" font-family="Arial, sans-serif" font-size="10" fill="white" text-anchor="middle">15 Servers</text>
  <text x="150" y="285" font-family="Arial, sans-serif" font-size="10" fill="white" text-anchor="middle">99.9% Uptime</text>
  <text x="250" y="285" font-family="Arial, sans-serif" font-size="10" fill="white" text-anchor="middle">24/7 Monitoring</text>
  <text x="330" y="285" font-family="Arial, sans-serif" font-size="10" fill="white" text-anchor="middle">Auto-scaling</text>
</svg>
