<svg width="400" height="300" viewBox="0 0 400 300" xmlns="http://www.w3.org/2000/svg">
  <defs>
    <linearGradient id="bg-gradient-3" x1="0%" y1="0%" x2="100%" y2="100%">
      <stop offset="0%" style="stop-color:#059669;stop-opacity:1" />
      <stop offset="100%" style="stop-color:#10b981;stop-opacity:1" />
    </linearGradient>
    <linearGradient id="card-gradient" x1="0%" y1="0%" x2="100%" y2="100%">
      <stop offset="0%" style="stop-color:#ffffff;stop-opacity:1" />
      <stop offset="100%" style="stop-color:#f8fafc;stop-opacity:1" />
    </linearGradient>
  </defs>
  
  <!-- Background -->
  <rect width="400" height="300" fill="url(#bg-gradient-3)"/>
  
  <!-- Main Container -->
  <rect x="20" y="30" width="360" height="240" fill="url(#card-gradient)" rx="16"/>
  
  <!-- Header with Laravel 12 -->
  <rect x="30" y="40" width="340" height="40" fill="#1f2937" rx="8"/>
  <rect x="40" y="50" width="60" height="20" fill="#FF2D20" rx="4"/>
  <text x="70" y="62" font-family="Arial, sans-serif" font-size="10" font-weight="bold" fill="white" text-anchor="middle">Laravel 12</text>
  <text x="120" y="55" font-family="Arial, sans-serif" font-size="14" font-weight="bold" fill="white">University Academic Systems</text>
  <text x="120" y="70" font-family="Arial, sans-serif" font-size="10" fill="#d1d5db">Integrated Education Platform</text>
  
  <!-- System Cards -->
  <!-- E-Learning -->
  <rect x="40" y="100" width="100" height="80" fill="white" rx="8" stroke="#e5e7eb" stroke-width="1"/>
  <rect x="45" y="105" width="90" height="25" fill="#6366f1" rx="4"/>
  <text x="90" y="120" font-family="Arial, sans-serif" font-size="12" font-weight="bold" fill="white" text-anchor="middle">E-Learning</text>
  <circle cx="60" cy="140" r="8" fill="#f3f4f6"/>
  <path d="M56 136 L60 140 L64 136" stroke="#6366f1" stroke-width="2" fill="none"/>
  <rect x="75" y="135" width="50" height="3" fill="#e5e7eb" rx="1"/>
  <rect x="75" y="142" width="35" height="3" fill="#e5e7eb" rx="1"/>
  <text x="90" y="165" font-family="Arial, sans-serif" font-size="9" fill="#374151" text-anchor="middle">5000+ Students</text>
  
  <!-- E-Library -->
  <rect x="150" y="100" width="100" height="80" fill="white" rx="8" stroke="#e5e7eb" stroke-width="1"/>
  <rect x="155" y="105" width="90" height="25" fill="#8b5cf6" rx="4"/>
  <text x="200" y="120" font-family="Arial, sans-serif" font-size="12" font-weight="bold" fill="white" text-anchor="middle">E-Library</text>
  <rect x="165" y="135" width="12" height="18" fill="#ddd6fe" rx="2"/>
  <rect x="180" y="135" width="12" height="18" fill="#ddd6fe" rx="2"/>
  <rect x="195" y="135" width="12" height="18" fill="#ddd6fe" rx="2"/>
  <rect x="210" y="135" width="12" height="18" fill="#ddd6fe" rx="2"/>
  <text x="200" y="165" font-family="Arial, sans-serif" font-size="9" fill="#374151" text-anchor="middle">10K+ Books</text>
  
  <!-- E-Jurnal -->
  <rect x="260" y="100" width="100" height="80" fill="white" rx="8" stroke="#e5e7eb" stroke-width="1"/>
  <rect x="265" y="105" width="90" height="25" fill="#f59e0b" rx="4"/>
  <text x="310" y="120" font-family="Arial, sans-serif" font-size="12" font-weight="bold" fill="white" text-anchor="middle">E-Jurnal</text>
  <rect x="275" y="135" width="60" height="8" fill="#fef3c7" rx="2"/>
  <rect x="275" y="146" width="45" height="4" fill="#fed7aa" rx="1"/>
  <circle cx="345" cy="145" r="6" fill="#22c55e"/>
  <text x="345" y="148" font-family="Arial, sans-serif" font-size="6" fill="white" text-anchor="middle">✓</text>
  <text x="310" y="165" font-family="Arial, sans-serif" font-size="9" fill="#374151" text-anchor="middle">Peer Review</text>
  
  <!-- Integration Lines -->
  <line x1="90" y1="180" x2="200" y2="200" stroke="#d1d5db" stroke-width="2"/>
  <line x1="200" y1="180" x2="310" y2="200" stroke="#d1d5db" stroke-width="2"/>
  <line x1="140" y1="140" x2="150" y2="140" stroke="#d1d5db" stroke-width="2"/>
  <line x1="250" y1="140" x2="260" y2="140" stroke="#d1d5db" stroke-width="2"/>
  
  <!-- Central Integration Hub -->
  <circle cx="200" cy="215" r="25" fill="#1f2937"/>
  <text x="200" y="210" font-family="Arial, sans-serif" font-size="8" font-weight="bold" fill="white" text-anchor="middle">Laravel 12</text>
  <text x="200" y="220" font-family="Arial, sans-serif" font-size="8" fill="#d1d5db" text-anchor="middle">Integration</text>
  <text x="200" y="230" font-family="Arial, sans-serif" font-size="8" fill="#d1d5db" text-anchor="middle">Hub</text>
  
  <!-- Statistics -->
  <rect x="40" y="250" width="320" height="15" fill="rgba(255,255,255,0.8)" rx="4"/>
  <text x="60" y="260" font-family="Arial, sans-serif" font-size="10" fill="#1f2937">📊 15 Modules</text>
  <text x="150" y="260" font-family="Arial, sans-serif" font-size="10" fill="#1f2937">👥 5000+ Users</text>
  <text x="250" y="260" font-family="Arial, sans-serif" font-size="10" fill="#1f2937">⚡ Real-time Sync</text>
  <text x="330" y="260" font-family="Arial, sans-serif" font-size="10" fill="#1f2937">🔒 Secure</text>
</svg>
