<svg width="400" height="300" viewBox="0 0 400 300" xmlns="http://www.w3.org/2000/svg">
  <defs>
    <linearGradient id="bg-gradient-1" x1="0%" y1="0%" x2="100%" y2="100%">
      <stop offset="0%" style="stop-color:#FF2D92;stop-opacity:1" />
      <stop offset="100%" style="stop-color:#FF8C42;stop-opacity:1" />
    </linearGradient>
    <linearGradient id="laravel-gradient" x1="0%" y1="0%" x2="100%" y2="100%">
      <stop offset="0%" style="stop-color:#FF2D20;stop-opacity:1" />
      <stop offset="100%" style="stop-color:#FF6B35;stop-opacity:1" />
    </linearGradient>
  </defs>
  
  <!-- Background -->
  <rect width="400" height="300" fill="url(#bg-gradient-1)"/>
  
  <!-- Browser Window -->
  <rect x="20" y="40" width="360" height="220" fill="white" rx="12"/>
  <rect x="20" y="40" width="360" height="35" fill="#1f2937" rx="12"/>
  <circle cx="40" cy="57" r="5" fill="#ef4444"/>
  <circle cx="58" cy="57" r="5" fill="#f59e0b"/>
  <circle cx="76" cy="57" r="5" fill="#22c55e"/>
  
  <!-- Laravel 12 Logo Area -->
  <rect x="30" y="85" width="340" height="50" fill="#f8fafc" rx="8"/>
  <rect x="40" y="95" width="60" height="30" fill="url(#laravel-gradient)" rx="6"/>
  <text x="70" y="112" font-family="Arial, sans-serif" font-size="12" font-weight="bold" fill="white" text-anchor="middle">L12</text>
  <text x="120" y="100" font-family="Arial, sans-serif" font-size="16" font-weight="bold" fill="#1f2937">University Information System</text>
  <text x="120" y="118" font-family="Arial, sans-serif" font-size="12" fill="#6b7280">Laravel 12 • MySQL • 5000+ Users</text>
  
  <!-- Dashboard Elements -->
  <rect x="40" y="150" width="100" height="80" fill="#f3f4f6" rx="8"/>
  <rect x="45" y="160" width="90" height="6" fill="#6366f1" rx="3"/>
  <rect x="45" y="175" width="60" height="4" fill="#d1d5db" rx="2"/>
  <rect x="45" y="185" width="80" height="4" fill="#d1d5db" rx="2"/>
  <text x="90" y="210" font-family="Arial, sans-serif" font-size="10" fill="#374151" text-anchor="middle">Dashboard</text>
  <circle cx="120" cy="220" r="8" fill="#10b981"/>
  <text x="120" y="224" font-family="Arial, sans-serif" font-size="8" fill="white" text-anchor="middle">✓</text>
  
  <!-- Student Management -->
  <rect x="155" y="150" width="100" height="80" fill="#f3f4f6" rx="8"/>
  <rect x="160" y="160" width="90" height="6" fill="#8b5cf6" rx="3"/>
  <circle cx="175" cy="180" r="12" fill="#e5e7eb"/>
  <circle cx="175" cy="180" r="8" fill="#6b7280"/>
  <rect x="195" y="175" width="40" height="3" fill="#d1d5db" rx="1"/>
  <rect x="195" y="185" width="30" height="3" fill="#d1d5db" rx="1"/>
  <text x="205" y="210" font-family="Arial, sans-serif" font-size="10" fill="#374151" text-anchor="middle">Students</text>
  <circle cx="235" cy="220" r="8" fill="#06b6d4"/>
  <text x="235" y="224" font-family="Arial, sans-serif" font-size="8" fill="white" text-anchor="middle">5K</text>
  
  <!-- Academic System -->
  <rect x="270" y="150" width="100" height="80" fill="#f3f4f6" rx="8"/>
  <rect x="275" y="160" width="90" height="6" fill="#f59e0b" rx="3"/>
  <rect x="280" y="175" width="20" height="15" fill="#ddd6fe" rx="3"/>
  <rect x="305" y="175" width="20" height="15" fill="#ddd6fe" rx="3"/>
  <rect x="330" y="175" width="20" height="15" fill="#ddd6fe" rx="3"/>
  <text x="320" y="210" font-family="Arial, sans-serif" font-size="10" fill="#374151" text-anchor="middle">Academic</text>
  <circle cx="350" cy="220" r="8" fill="#ef4444"/>
  <text x="350" y="224" font-family="Arial, sans-serif" font-size="8" fill="white" text-anchor="middle">✦</text>
  
  <!-- Laravel 12 Badge -->
  <rect x="310" y="20" width="80" height="25" fill="url(#laravel-gradient)" rx="12"/>
  <text x="350" y="35" font-family="Arial, sans-serif" font-size="12" font-weight="bold" fill="white" text-anchor="middle">Laravel 12</text>
  
  <!-- Stats -->
  <circle cx="50" cy="270" r="15" fill="rgba(255,255,255,0.2)"/>
  <text x="50" y="274" font-family="Arial, sans-serif" font-size="10" fill="white" text-anchor="middle">99%</text>
  <text x="50" y="290" font-family="Arial, sans-serif" font-size="8" fill="rgba(255,255,255,0.8)" text-anchor="middle">Uptime</text>
  
  <circle cx="150" cy="270" r="15" fill="rgba(255,255,255,0.2)"/>
  <text x="150" y="274" font-family="Arial, sans-serif" font-size="10" fill="white" text-anchor="middle">5K</text>
  <text x="150" y="290" font-family="Arial, sans-serif" font-size="8" fill="rgba(255,255,255,0.8)" text-anchor="middle">Users</text>
  
  <circle cx="250" cy="270" r="15" fill="rgba(255,255,255,0.2)"/>
  <text x="250" y="274" font-family="Arial, sans-serif" font-size="10" fill="white" text-anchor="middle">15</text>
  <text x="250" y="290" font-family="Arial, sans-serif" font-size="8" fill="rgba(255,255,255,0.8)" text-anchor="middle">Modules</text>
</svg>
